<svg width="31" height="31" viewBox="0 0 31 31" fill="none" xmlns="http://www.w3.org/2000/svg">
    <rect width="30.9474" height="30.9474" rx="7.73684" fill="#0890FE"/>
    <path fill-rule="evenodd" clip-rule="evenodd" d="M11.5 10.1404C11.5 9.68013 11.8731 9.30704 12.3333 9.30704H20.3333C20.7936 9.30704 21.1666 9.68013 21.1666 10.1404V14.1404C21.1666 14.6006 20.7936 14.9737 20.3333 14.9737H19.6666C19.3905 14.9737 19.1666 15.1976 19.1666 15.4737C19.1666 15.7498 19.3905 15.9737 19.6666 15.9737H20.3333C21.3458 15.9737 22.1666 15.1529 22.1666 14.1404V10.1404C22.1666 9.12785 21.3458 8.30704 20.3333 8.30704H12.3333C11.3208 8.30704 10.5 9.12785 10.5 10.1404V11.1404C10.5 11.4165 10.7238 11.6404 11 11.6404C11.2761 11.6404 11.5 11.4165 11.5 11.1404V10.1404ZM11.6666 14.1404C11.6666 14.8768 11.0697 15.4737 10.3333 15.4737C9.59693 15.4737 8.99998 14.8768 8.99998 14.1404C8.99998 13.404 9.59693 12.807 10.3333 12.807C11.0697 12.807 11.6666 13.404 11.6666 14.1404ZM18.7539 13.7441C18.9032 13.5119 18.836 13.2025 18.6037 13.0532C18.3714 12.9038 18.0621 12.9711 17.9127 13.2034L15.3189 17.2382C15.0529 17.1502 14.7507 17.1778 14.4952 17.3404L12.3333 18.4737V18.1404C12.3333 17.0358 11.4379 16.1404 10.3333 16.1404C9.22874 16.1404 8.33331 17.0358 8.33331 18.1404V22.1404H12.3333V20.5937C12.5089 20.5675 12.6823 20.5056 12.8428 20.4053L15.5275 18.9773C15.8492 18.7763 16.0124 18.4167 15.9779 18.0623L18.7539 13.7441ZM13.1666 11.4737C13.1666 11.1976 13.3905 10.9737 13.6666 10.9737H19C19.2761 10.9737 19.5 11.1976 19.5 11.4737C19.5 11.7498 19.2761 11.9737 19 11.9737H13.6666C13.3905 11.9737 13.1666 11.7498 13.1666 11.4737ZM13.6666 12.9737C13.3905 12.9737 13.1666 13.1976 13.1666 13.4737C13.1666 13.7498 13.3905 13.9737 13.6666 13.9737H16.3333C16.6095 13.9737 16.8333 13.7498 16.8333 13.4737C16.8333 13.1976 16.6095 12.9737 16.3333 12.9737H13.6666Z" fill="white"/>
</svg>
