<svg width="31" height="31" viewBox="0 0 31 31" fill="none" xmlns="http://www.w3.org/2000/svg">
    <rect width="30.9474" height="30.9474" rx="7.73684" fill="#FF4267"/>
    <path fill-rule="evenodd" clip-rule="evenodd" d="M9.33331 9.33334C8.78103 9.33334 8.33331 9.78106 8.33331 10.3333C8.33331 10.8856 8.78103 11.3333 9.33331 11.3333H20.6666C21.2189 11.3333 21.6666 10.8856 21.6666 10.3333C21.6666 9.78106 21.2189 9.33334 20.6666 9.33334H9.33331ZM21 12.3333H8.99998V18.6667C8.99998 19.4031 9.59693 20 10.3333 20H14.5V22.6667C14.5 22.9428 14.7238 23.1667 15 23.1667C15.2761 23.1667 15.5 22.9428 15.5 22.6667V20H19.6666C20.403 20 21 19.4031 21 18.6667V12.3333ZM18.0954 14.924C18.2375 14.6872 18.1607 14.3801 17.9239 14.238C17.6871 14.0959 17.38 14.1727 17.2379 14.4095L16.5164 15.612C16.27 16.0227 15.6896 16.0617 15.3904 15.6877C14.6559 14.7696 13.231 14.8654 12.6261 15.8737L11.9046 17.0762C11.7625 17.313 11.8393 17.6201 12.0761 17.7622C12.3128 17.9042 12.62 17.8275 12.7621 17.5907L13.4836 16.3882C13.73 15.9775 14.3103 15.9384 14.6095 16.3124C15.3441 17.2306 16.7689 17.1347 17.3739 16.1265L18.0954 14.924Z" fill="white"/>
</svg>
