<svg width="24" height="24" viewBox="0 0 24 24" fill="none" xmlns="http://www.w3.org/2000/svg">
    <circle cx="12" cy="12" r="12" fill="#D2F1DE"/>
    <path d="M14.095 7H9.905C8.085 7 7 8.085 7 9.905V14.09C7 15.915 8.085 17 9.905 17H14.09C15.91 17 16.995 15.915 16.995 14.095V9.905C17 8.085 15.915 7 14.095 7ZM9.815 15.075C9.815 15.28 9.645 15.45 9.44 15.45C9.235 15.45 9.065 15.28 9.065 15.075V14.04C9.065 13.835 9.235 13.665 9.44 13.665C9.645 13.665 9.815 13.835 9.815 14.04V15.075ZM12.375 15.075C12.375 15.28 12.205 15.45 12 15.45C11.795 15.45 11.625 15.28 11.625 15.075V13C11.625 12.795 11.795 12.625 12 12.625C12.205 12.625 12.375 12.795 12.375 13V15.075ZM14.935 15.075C14.935 15.28 14.765 15.45 14.56 15.45C14.355 15.45 14.185 15.28 14.185 15.075V11.965C14.185 11.76 14.355 11.59 14.56 11.59C14.765 11.59 14.935 11.76 14.935 11.965V15.075ZM14.935 10.385C14.935 10.59 14.765 10.76 14.56 10.76C14.355 10.76 14.185 10.59 14.185 10.385V9.9C12.91 11.21 11.315 12.135 9.53 12.58C9.5 12.59 9.47 12.59 9.44 12.59C9.27 12.59 9.12 12.475 9.075 12.305C9.025 12.105 9.145 11.9 9.35 11.85C11.035 11.43 12.535 10.545 13.725 9.295H13.1C12.895 9.295 12.725 9.125 12.725 8.92C12.725 8.715 12.895 8.545 13.1 8.545H14.565C14.585 8.545 14.6 8.555 14.62 8.555C14.645 8.56 14.67 8.56 14.695 8.57C14.72 8.58 14.74 8.595 14.765 8.61C14.78 8.62 14.795 8.625 14.81 8.635C14.815 8.64 14.815 8.645 14.82 8.645C14.84 8.665 14.855 8.685 14.87 8.705C14.885 8.725 14.9 8.74 14.905 8.76C14.915 8.78 14.915 8.8 14.92 8.825C14.925 8.85 14.935 8.875 14.935 8.905C14.935 8.91 14.94 8.915 14.94 8.92V10.385H14.935Z" fill="#1B1B1B"/>
</svg>
