<svg width="24" height="24" viewBox="0 0 24 24" fill="none" xmlns="http://www.w3.org/2000/svg">
    <circle cx="12" cy="12" r="12" fill="#EADAFF"/>
    <path d="M14.095 7H9.905C8.085 7 7 8.085 7 9.905V14.095C7 15.915 8.085 17 9.905 17H14.095C15.915 17 17 15.915 17 14.095V9.905C17 8.085 15.915 7 14.095 7ZM10.985 13.45L9.86 14.575C9.785 14.65 9.69 14.685 9.595 14.685C9.5 14.685 9.4 14.65 9.33 14.575L8.955 14.2C8.805 14.055 8.805 13.815 8.955 13.67C9.1 13.525 9.335 13.525 9.485 13.67L9.595 13.78L10.455 12.92C10.6 12.775 10.835 12.775 10.985 12.92C11.13 13.065 11.13 13.305 10.985 13.45ZM10.985 9.95L9.86 11.075C9.785 11.15 9.69 11.185 9.595 11.185C9.5 11.185 9.4 11.15 9.33 11.075L8.955 10.7C8.805 10.555 8.805 10.315 8.955 10.17C9.1 10.025 9.335 10.025 9.485 10.17L9.595 10.28L10.455 9.42C10.6 9.275 10.835 9.275 10.985 9.42C11.13 9.565 11.13 9.805 10.985 9.95ZM14.78 14.31H12.155C11.95 14.31 11.78 14.14 11.78 13.935C11.78 13.73 11.95 13.56 12.155 13.56H14.78C14.99 13.56 15.155 13.73 15.155 13.935C15.155 14.14 14.99 14.31 14.78 14.31ZM14.78 10.81H12.155C11.95 10.81 11.78 10.64 11.78 10.435C11.78 10.23 11.95 10.06 12.155 10.06H14.78C14.99 10.06 15.155 10.23 15.155 10.435C15.155 10.64 14.99 10.81 14.78 10.81Z" fill="#1B1B1B"/>
</svg>
