<svg width="24" height="24" viewBox="0 0 24 24" fill="none" xmlns="http://www.w3.org/2000/svg">
    <circle cx="12" cy="12" r="12" fill="#DEE3FF"/>
    <path d="M14 7H10C8.25 7 7.5 8 7.5 9.5V14.5C7.5 16 8.25 17 10 17H14C15.75 17 16.5 16 16.5 14.5V9.5C16.5 8 15.75 7 14 7ZM11.265 14.235C11.41 14.38 11.41 14.62 11.265 14.765C11.19 14.84 11.095 14.875 11 14.875C10.905 14.875 10.81 14.84 10.735 14.765L9.735 13.765C9.59 13.62 9.59 13.38 9.735 13.235L10.735 12.235C10.88 12.09 11.12 12.09 11.265 12.235C11.41 12.38 11.41 12.62 11.265 12.765L10.53 13.5L11.265 14.235ZM14.265 13.765L13.265 14.765C13.19 14.84 13.095 14.875 13 14.875C12.905 14.875 12.81 14.84 12.735 14.765C12.59 14.62 12.59 14.38 12.735 14.235L13.47 13.5L12.735 12.765C12.59 12.62 12.59 12.38 12.735 12.235C12.88 12.09 13.12 12.09 13.265 12.235L14.265 13.235C14.41 13.38 14.41 13.62 14.265 13.765ZM15.25 10.625H14.25C13.49 10.625 12.875 10.01 12.875 9.25V8.25C12.875 8.045 13.045 7.875 13.25 7.875C13.455 7.875 13.625 8.045 13.625 8.25V9.25C13.625 9.595 13.905 9.875 14.25 9.875H15.25C15.455 9.875 15.625 10.045 15.625 10.25C15.625 10.455 15.455 10.625 15.25 10.625Z" fill="#1B1B1B"/>
</svg>
