<svg width="28" height="28" viewBox="0 0 28 28" fill="none" xmlns="http://www.w3.org/2000/svg">
    <path d="M26 12.3675V8.4008C26 7.69356 25.7191 7.01528 25.219 6.51518C24.7189 6.01508 24.0406 5.73413 23.3333 5.73413H15.3333V3.9848C15.74 3.61947 16 3.09413 16 2.5048C16 1.97437 15.7893 1.46566 15.4142 1.09059C15.0391 0.715513 14.5304 0.504799 14 0.504799C13.4696 0.504799 12.9609 0.715513 12.5858 1.09059C12.2107 1.46566 12 1.97437 12 2.5048C12 3.09413 12.26 3.61947 12.6667 3.9848V5.73413H4.66667C3.95943 5.73413 3.28115 6.01508 2.78105 6.51518C2.28096 7.01528 2.00001 7.69356 2.00001 8.4008V12.3981L1.90401 12.4048C1.56786 12.4288 1.25328 12.5792 1.02367 12.8259C0.794064 13.0726 0.666494 13.3971 0.666672 13.7341V16.4008C0.666672 16.7544 0.807148 17.0936 1.0572 17.3436C1.30724 17.5937 1.64638 17.7341 2.00001 17.7341V24.4008C2.00001 25.108 2.28096 25.7863 2.78105 26.2864C3.28115 26.7865 3.95943 27.0675 4.66667 27.0675H23.3333C24.0406 27.0675 24.7189 26.7865 25.219 26.2864C25.7191 25.7863 26 25.108 26 24.4008V17.7341C26.3536 17.7341 26.6928 17.5937 26.9428 17.3436C27.1929 17.0936 27.3333 16.7544 27.3333 16.4008V13.8168C27.3488 13.6099 27.3159 13.4022 27.2373 13.2101C26.968 12.5595 26.3907 12.4035 26 12.3675ZM7.33334 13.7341C7.33334 12.2621 8.22934 11.0675 9.33334 11.0675C10.4373 11.0675 11.3333 12.2621 11.3333 13.7341C11.3333 15.2061 10.4373 16.4008 9.33334 16.4008C8.22934 16.4008 7.33334 15.2061 7.33334 13.7341ZM19.3307 21.7341C17.996 21.7301 8.66667 21.7341 8.66667 21.7341V19.0675C8.66667 19.0675 18.0013 19.0648 19.336 19.0675L19.3307 21.7341ZM18.6667 16.4008C17.5627 16.4008 16.6667 15.2061 16.6667 13.7341C16.6667 12.2621 17.5627 11.0675 18.6667 11.0675C19.7707 11.0675 20.6667 12.2621 20.6667 13.7341C20.6667 15.2061 19.7707 16.4008 18.6667 16.4008Z" fill="#56B55A"/>
</svg>
