<svg width="25" height="24" viewBox="0 0 25 24" fill="none" xmlns="http://www.w3.org/2000/svg">
    <path d="M3.5 9H21.5V18C21.5 20.2091 19.7091 22 17.5 22H7.5C5.29086 22 3.5 20.2091 3.5 18V9Z" fill="#93AAFD"/>
    <path d="M17.5 3.5H7.5C5.29086 3.5 3.5 5.29086 3.5 7.5V9H21.5V7.5C21.5 5.29086 19.7091 3.5 17.5 3.5Z" fill="#28303F"/>
    <path fill-rule="evenodd" clip-rule="evenodd" d="M8.5 1.25C8.91421 1.25 9.25 1.58579 9.25 2V5C9.25 5.41421 8.91421 5.75 8.5 5.75C8.08579 5.75 7.75 5.41421 7.75 5V2C7.75 1.58579 8.08579 1.25 8.5 1.25ZM16.5 1.25C16.9142 1.25 17.25 1.58579 17.25 2V5C17.25 5.41421 16.9142 5.75 16.5 5.75C16.0858 5.75 15.75 5.41421 15.75 5V2C15.75 1.58579 16.0858 1.25 16.5 1.25Z" fill="#93AAFD"/>
    <path d="M12.495 13H12.505M12.495 17H12.505M16.9899 13H17M8 13H8.01009M8 17H8.01009" stroke="#141B34" stroke-width="2" stroke-linecap="round" stroke-linejoin="round"/>
</svg>
