<svg width="40" height="40" viewBox="0 0 40 40" fill="none" xmlns="http://www.w3.org/2000/svg">
    <rect x="0.5" y="0.5" width="39" height="39" rx="3.5" fill="white" stroke="#D7DBEC"/>
    <path fill-rule="evenodd" clip-rule="evenodd" d="M27 27C27.5523 27 28 27.4477 28 28C28 28.5523 27.5523 29 27 29H13C12.4477 29 12 28.5523 12 28C12 27.4477 12.4477 27 13 27H27ZM26.003 11.5849L27.4151 12.997C28.195 13.7769 28.195 15.0414 27.4151 15.8213L19.1778 24.0586C19.025 24.2114 18.8268 24.3105 18.6129 24.341L14 25L14.659 20.3871C14.6895 20.1732 14.7886 19.975 14.9414 19.8222L23.1787 11.5849C23.9586 10.805 25.2231 10.805 26.003 11.5849ZM24.5909 12.997L16.5891 20.9988L16.354 22.646L18.0012 22.4109L26.003 14.4091L24.5909 12.997Z" fill="#1E5EFF"/>
</svg>
