<svg width="40" height="40" viewBox="0 0 40 40" fill="none" xmlns="http://www.w3.org/2000/svg">
    <rect x="0.5" y="0.5" width="39" height="39" rx="3.5" fill="white" stroke="#D7DBEC"/>
    <path fill-rule="evenodd" clip-rule="evenodd" d="M26 16V27C26 28.1046 25.1046 29 24 29H16C14.8954 29 14 28.1046 14 27V16H26ZM24 18H16V27H24V18ZM20 11C20.5523 11 21 11.4477 21 12V13H26C26.5523 13 27 13.4477 27 14C27 14.5523 26.5523 15 26 15H14C13.4477 15 13 14.5523 13 14C13 13.4477 13.4477 13 14 13H19V12C19 11.4477 19.4477 11 20 11Z" fill="#1E5EFF"/>
</svg>
