<svg width="16" height="16" viewBox="0 0 16 16" fill="none" xmlns="http://www.w3.org/2000/svg">
    <path d="M14 3.98665C11.78 3.76665 9.54667 3.65332 7.32 3.65332C6 3.65332 4.68 3.71999 3.36 3.85332L2 3.98665" stroke="#657081" stroke-width="1.2" stroke-linecap="round" stroke-linejoin="round"/>
    <path d="M5.6665 3.31331L5.81317 2.43998C5.91984 1.80665 5.99984 1.33331 7.1265 1.33331H8.87317C9.99984 1.33331 10.0865 1.83331 10.1865 2.44665L10.3332 3.31331" stroke="#657081" stroke-width="1.2" stroke-linecap="round" stroke-linejoin="round"/>
    <path d="M12.5664 6.09332L12.1331 12.8067C12.0598 13.8533 11.9998 14.6667 10.1398 14.6667H5.85977C3.99977 14.6667 3.93977 13.8533 3.86644 12.8067L3.43311 6.09332" stroke="#657081" stroke-width="1.2" stroke-linecap="round" stroke-linejoin="round"/>
    <path d="M6.88672 11H9.10672" stroke="#657081" stroke-width="1.2" stroke-linecap="round" stroke-linejoin="round"/>
    <path d="M6.3335 8.33331H9.66683" stroke="#657081" stroke-width="1.2" stroke-linecap="round" stroke-linejoin="round"/>
</svg>
