<svg width="30" height="30" viewBox="0 0 30 30" fill="none" xmlns="http://www.w3.org/2000/svg">
    <path fill-rule="evenodd" clip-rule="evenodd" d="M19.5 20.2539L19.5 9.67393C19.5 7.58393 17.97 5.72393 15.89 5.52393C13.51 5.29393 11.5 7.16393 11.5 9.50393L11.5 21.8639C11.5 23.1739 12.44 24.3639 13.74 24.4939C15.24 24.6439 16.5 23.4739 16.5 22.0039L16.5 11.5039C16.5 10.9539 16.05 10.5039 15.5 10.5039C14.95 10.5039 14.5 10.9539 14.5 11.5039L14.5 20.2539C14.5 20.6639 14.16 21.0039 13.75 21.0039C13.34 21.0039 13 20.6639 13 20.2539L13 11.6439C13 10.3339 13.94 9.14393 15.24 9.01393C16.74 8.86393 18 10.0339 18 11.5039L18 21.8339C18 23.9239 16.47 25.7839 14.39 25.9839C12 26.2139 10 24.3439 10 22.0039L10 9.73393C10 6.86393 12.1 4.29393 14.96 4.02393C18.25 3.72393 21 6.28393 21 9.50393L21 20.2539C21 20.6639 20.66 21.0039 20.25 21.0039C19.84 21.0039 19.5 20.6639 19.5 20.2539Z" fill="#28303F"/>
</svg>
