<svg width="48" height="48" viewBox="0 0 48 48" fill="none" xmlns="http://www.w3.org/2000/svg">
    <rect width="48" height="48" rx="12" fill="#F0FFF4"/>
    <path d="M21 34H27C32 34 34 32 34 27V21C34 16 32 14 27 14H21C16 14 14 16 14 21V27C14 32 16 34 21 34Z" stroke="#48BB78" stroke-width="1.5" stroke-linecap="round" stroke-linejoin="round"/>
    <path d="M14.6699 30.95L19.5999 27.64C20.3899 27.11 21.5299 27.17 22.2399 27.78L22.5699 28.07C23.3499 28.74 24.6099 28.74 25.3899 28.07L29.5499 24.5C30.3299 23.83 31.5899 23.83 32.3699 24.5L33.9999 25.9M20.9999 22C21.5304 22 22.0391 21.7893 22.4141 21.4142C22.7892 21.0391 22.9999 20.5304 22.9999 20C22.9999 19.4696 22.7892 18.9609 22.4141 18.5858C22.0391 18.2107 21.5304 18 20.9999 18C20.4695 18 19.9608 18.2107 19.5857 18.5858C19.2106 18.9609 18.9999 19.4696 18.9999 20C18.9999 20.5304 19.2106 21.0391 19.5857 21.4142C19.9608 21.7893 20.4695 22 20.9999 22Z" stroke="#48BB78" stroke-width="1.5" stroke-linecap="round" stroke-linejoin="round"/>
</svg>
