<svg width="48" height="48" viewBox="0 0 48 48" fill="none" xmlns="http://www.w3.org/2000/svg">
    <rect width="48" height="48" rx="12" fill="#FFF5F5"/>
    <path d="M20 24.2H27M20 28.2H24.38M22 18H26C28 18 28 17 28 16C28 14 27 14 26 14H22C21 14 20 14 20 16C20 18 21 18 22 18Z" stroke="#F56565" stroke-width="1.5" stroke-miterlimit="10" stroke-linecap="round" stroke-linejoin="round"/>
    <path d="M28 16.02C31.33 16.2 33 17.43 33 22V28C33 32 32 34 27 34H21C16 34 15 32 15 28V22C15 17.44 16.67 16.2 20 16.02" stroke="#F56565" stroke-width="1.5" stroke-miterlimit="10" stroke-linecap="round" stroke-linejoin="round"/>
</svg>
