<svg width="20" height="20" viewBox="0 0 20 20" fill="none" xmlns="http://www.w3.org/2000/svg">
    <path d="M1.6665 14.9993C1.6665 13.7157 1.6665 13.0738 1.95544 12.6023C2.11712 12.3385 2.33895 12.1166 2.60278 11.955C3.07429 11.666 3.71614 11.666 4.99984 11.666C6.28354 11.666 6.92538 11.666 7.39689 11.955C7.66073 12.1166 7.88255 12.3385 8.04423 12.6023C8.33317 13.0738 8.33317 13.7157 8.33317 14.9993C8.33317 16.283 8.33317 16.9249 8.04423 17.3964C7.88255 17.6602 7.66073 17.8821 7.39689 18.0437C6.92538 18.3327 6.28354 18.3327 4.99984 18.3327C3.71614 18.3327 3.07429 18.3327 2.60278 18.0437C2.33895 17.8821 2.11712 17.6602 1.95544 17.3964C1.6665 16.9249 1.6665 16.283 1.6665 14.9993Z" stroke="black" stroke-opacity="0.8"/>
    <path d="M11.6665 14.9993C11.6665 13.7157 11.6665 13.0738 11.9554 12.6023C12.1171 12.3385 12.3389 12.1166 12.6028 11.955C13.0743 11.666 13.7161 11.666 14.9998 11.666C16.2835 11.666 16.9254 11.666 17.3969 11.955C17.6607 12.1166 17.8826 12.3385 18.0442 12.6023C18.3332 13.0738 18.3332 13.7157 18.3332 14.9993C18.3332 16.283 18.3332 16.9249 18.0442 17.3964C17.8826 17.6602 17.6607 17.8821 17.3969 18.0437C16.9254 18.3327 16.2835 18.3327 14.9998 18.3327C13.7161 18.3327 13.0743 18.3327 12.6028 18.0437C12.3389 17.8821 12.1171 17.6602 11.9554 17.3964C11.6665 16.9249 11.6665 16.283 11.6665 14.9993Z" stroke="black" stroke-opacity="0.8"/>
    <path d="M1.6665 4.99935C1.6665 3.71565 1.6665 3.0738 1.95544 2.60229C2.11712 2.33846 2.33895 2.11663 2.60278 1.95496C3.07429 1.66602 3.71614 1.66602 4.99984 1.66602C6.28354 1.66602 6.92538 1.66602 7.39689 1.95496C7.66073 2.11663 7.88255 2.33846 8.04423 2.60229C8.33317 3.0738 8.33317 3.71565 8.33317 4.99935C8.33317 6.28305 8.33317 6.9249 8.04423 7.3964C7.88255 7.66024 7.66073 7.88206 7.39689 8.04374C6.92538 8.33268 6.28354 8.33268 4.99984 8.33268C3.71614 8.33268 3.07429 8.33268 2.60278 8.04374C2.33895 7.88206 2.11712 7.66024 1.95544 7.3964C1.6665 6.9249 1.6665 6.28305 1.6665 4.99935Z" stroke="black" stroke-opacity="0.8"/>
    <path d="M11.6665 4.99935C11.6665 3.71565 11.6665 3.0738 11.9554 2.60229C12.1171 2.33846 12.3389 2.11663 12.6028 1.95496C13.0743 1.66602 13.7161 1.66602 14.9998 1.66602C16.2835 1.66602 16.9254 1.66602 17.3969 1.95496C17.6607 2.11663 17.8826 2.33846 18.0442 2.60229C18.3332 3.0738 18.3332 3.71565 18.3332 4.99935C18.3332 6.28305 18.3332 6.9249 18.0442 7.3964C17.8826 7.66024 17.6607 7.88206 17.3969 8.04374C16.9254 8.33268 16.2835 8.33268 14.9998 8.33268C13.7161 8.33268 13.0743 8.33268 12.6028 8.04374C12.3389 7.88206 12.1171 7.66024 11.9554 7.3964C11.6665 6.9249 11.6665 6.28305 11.6665 4.99935Z" stroke="black" stroke-opacity="0.8"/>
</svg>