<svg width="24" height="24" viewBox="0 0 24 24" fill="none" xmlns="http://www.w3.org/2000/svg">
    <path d="M7.99988 6C7.99988 3.79086 9.79074 2 11.9999 2H17.9999C20.2091 2 21.9999 3.79086 21.9999 6V12C21.9999 14.2091 20.2091 16 17.9999 16H13.0078V12H7.99988V6Z" fill="#93AAFD"/>
    <path fill-rule="evenodd" clip-rule="evenodd" d="M5.99994 8C3.7908 8 1.99994 9.79086 1.99994 12V18C1.99994 20.2091 3.7908 22 5.99994 22H12C14.2091 22 16 20.2091 16 18V12C16 9.79086 14.2091 8 12 8H5.99994ZM12.5644 13.6833C12.8372 13.3716 12.8056 12.8978 12.4938 12.625C12.1821 12.3523 11.7083 12.3839 11.4355 12.6956L8.56563 15.9755C8.47753 16.0762 8.32578 16.0896 8.22131 16.0061L6.46849 14.6038C6.14504 14.3451 5.67307 14.3975 5.41431 14.7209C5.15556 15.0444 5.208 15.5164 5.53145 15.7751L7.28427 17.1774C8.01555 17.7624 9.0778 17.668 9.69449 16.9632L12.5644 13.6833Z" fill="#28303F"/>
</svg>